<?xml version="1.0" encoding="UTF-8"?>
<!-- Generator: visioncortex VTracer 0.6.3 -->
<svg version="1.1" xmlns="http://www.w3.org/2000/svg" width="1280" height="960">
<path d="M0 0 C3.91 3.12 6.63 6.79 8.75 11.31 C8.75 11.97 8.75 12.63 8.75 13.31 C9.41 13.31 10.07 13.31 10.75 13.31 C11.03 12.32 11.03 12.32 11.31 11.31 C15.22 3.16 21.38 -1.55 29.75 -4.69 C39.19 -6.99 48.76 -6.21 57.2 -1.25 C64.93 4.27 68.53 10.74 70.32 19.93 C71.32 27.77 71.08 35.72 71.09 43.62 C71.09 45.59 71.1 47.56 71.11 49.53 C71.12 53.65 71.12 57.76 71.12 61.87 C71.12 67.14 71.15 72.42 71.18 77.69 C71.2 81.75 71.21 85.82 71.21 89.88 C71.21 91.82 71.22 93.77 71.23 95.71 C71.25 98.42 71.25 101.14 71.24 103.85 C71.25 104.65 71.26 105.45 71.27 106.28 C71.23 109.86 71.06 111.9 68.88 114.81 C66.23 116.68 64.69 116.83 61.47 116.84 C60.46 116.85 59.46 116.85 58.42 116.86 C57.37 116.84 56.33 116.83 55.25 116.81 C53.68 116.84 53.68 116.84 52.08 116.86 C51.08 116.85 50.07 116.85 49.03 116.84 C47.66 116.84 47.66 116.84 46.25 116.83 C42.86 116.13 41.85 115.06 39.75 112.31 C39.36 109.58 39.21 107.25 39.24 104.52 C39.23 103.74 39.22 102.96 39.21 102.15 C39.19 99.57 39.2 96.99 39.21 94.41 C39.2 92.62 39.19 90.82 39.18 89.03 C39.14 84.3 39.13 79.57 39.13 74.84 C39.12 67.28 39.08 59.71 39.04 52.15 C39.02 49.51 39.02 46.88 39.03 44.24 C39.02 42.61 39.01 40.99 39.01 39.37 C39.01 38.64 39.01 37.91 39.02 37.15 C38.98 32.85 38.46 29.28 36.75 25.31 C34.93 24.32 34.93 24.32 32.75 24.31 C31.58 24.19 31.58 24.19 30.38 24.07 C26.17 23.95 23.24 24.11 19.31 25.75 C12.81 32.25 13.37 41.24 13.36 49.84 C13.36 50.64 13.37 51.43 13.37 52.25 C13.38 54.75 13.37 57.26 13.35 59.76 C13.31 66.88 13.31 73.99 13.31 81.11 C13.31 85.48 13.3 89.84 13.26 94.21 C13.25 96.68 13.27 99.15 13.28 101.62 C13.27 103.12 13.26 104.63 13.25 106.14 C13.25 107.45 13.25 108.77 13.25 110.13 C12.75 113.31 12.75 113.31 10.88 115.24 C6.64 117.38 1.9 116.78 -2.75 116.75 C-3.8 116.77 -4.84 116.79 -5.92 116.81 C-7.43 116.81 -7.43 116.81 -8.97 116.81 C-9.89 116.81 -10.8 116.81 -11.75 116.81 C-15.14 116.13 -16.15 115.05 -18.25 112.31 C-18.64 109.64 -18.78 107.38 -18.75 104.72 C-18.75 103.96 -18.76 103.2 -18.77 102.41 C-18.77 100.77 -18.77 99.12 -18.77 97.47 C-18.75 94.86 -18.77 92.25 -18.78 89.64 C-18.81 85.04 -18.81 80.43 -18.81 75.82 C-18.81 68.46 -18.83 61.1 -18.87 53.74 C-18.88 51.18 -18.87 48.61 -18.86 46.05 C-18.87 44.46 -18.87 42.88 -18.88 41.3 C-18.87 40.59 -18.87 39.88 -18.86 39.15 C-18.91 34.1 -19.94 30.72 -22.25 26.31 C-25.89 23.54 -28.52 23.13 -32.94 23.56 C-35.55 23.94 -37.73 24.47 -40.25 25.31 C-43.58 31.78 -44.5 38.88 -44.51 46.06 C-44.51 47.15 -44.51 47.15 -44.52 48.26 C-44.52 49.83 -44.53 51.39 -44.52 52.96 C-44.52 55.43 -44.54 57.91 -44.55 60.38 C-44.6 67.42 -44.62 74.45 -44.63 81.48 C-44.64 85.8 -44.66 90.11 -44.7 94.43 C-44.71 96.07 -44.71 97.71 -44.7 99.35 C-44.7 101.64 -44.71 103.93 -44.74 106.21 C-44.74 108.17 -44.74 108.17 -44.74 110.16 C-45.25 113.31 -45.25 113.31 -47.12 115.23 C-49.76 116.57 -51.61 116.69 -54.57 116.68 C-56.08 116.67 -56.08 116.67 -57.63 116.67 C-58.68 116.66 -59.73 116.64 -60.81 116.62 C-61.87 116.63 -62.92 116.63 -64.01 116.63 C-71.85 116.58 -71.85 116.58 -75.25 114.31 C-75.62 112.25 -75.62 112.25 -75.61 109.67 C-75.61 108.69 -75.62 107.71 -75.62 106.7 C-75.61 105.62 -75.6 104.55 -75.59 103.44 C-75.59 102.31 -75.59 101.17 -75.59 100.01 C-75.59 96.25 -75.57 92.5 -75.54 88.74 C-75.54 86.14 -75.53 83.55 -75.53 80.95 C-75.52 74.8 -75.5 68.65 -75.47 62.5 C-75.43 55.51 -75.42 48.51 -75.4 41.51 C-75.37 27.11 -75.32 12.71 -75.25 -1.69 C-72.09 -3.37 -69.97 -3.94 -66.37 -3.95 C-64.99 -3.96 -64.99 -3.96 -63.58 -3.96 C-62.63 -3.95 -61.67 -3.95 -60.69 -3.94 C-59.73 -3.95 -58.77 -3.95 -57.78 -3.96 C-56.4 -3.96 -56.4 -3.96 -55 -3.95 C-54.16 -3.95 -53.32 -3.95 -52.45 -3.95 C-50.25 -3.69 -50.25 -3.69 -47.25 -1.69 C-46.74 1.57 -46.74 1.57 -46.56 5.44 C-46.5 6.72 -46.43 8 -46.36 9.32 C-46.33 10.31 -46.29 11.3 -46.25 12.31 C-45.72 11.44 -45.72 11.44 -45.18 10.55 C-40.08 2.48 -35.34 -2.81 -25.86 -5.22 C-16.34 -6.93 -8.01 -5.51 0 0 Z " fill="#030303" transform="translate(484.25,380.6875)"/>
<path d="M0 0 C9.39 8.12 12.55 15.36 13.58 27.5 C13.9 32.55 13.91 37.6 13.91 42.67 C13.93 44.96 13.95 47.25 13.97 49.55 C14 53.11 14.02 56.68 14.02 60.24 C14.03 63.72 14.06 67.19 14.1 70.67 C14.09 71.72 14.09 72.78 14.08 73.87 C14.22 82.36 16.91 87.47 21.71 94.29 C22.77 96.54 22.77 96.54 22.27 98.79 C20.16 102.65 17.21 104.96 13.84 107.72 C13.2 108.26 12.57 108.79 11.92 109.34 C4.68 115.39 4.68 115.39 1.38 115.92 C-2.18 115.39 -3.45 113.92 -5.91 111.35 C-6.68 110.57 -7.45 109.79 -8.24 108.99 C-10.21 106.56 -11.24 104.49 -12.23 101.54 C-13.06 102.21 -13.89 102.89 -14.75 103.58 C-27.95 114.11 -39.17 118.01 -56.23 116.54 C-64.33 114.86 -70.98 111.29 -75.69 104.39 C-81.65 94.25 -83 82.79 -80.54 71.33 C-77.23 61.45 -70.89 53.36 -61.83 48.16 C-48.39 41.54 -32.89 40.49 -18.23 38.54 C-18.34 36.31 -18.47 34.08 -18.6 31.85 C-18.67 30.61 -18.74 29.36 -18.81 28.09 C-19.19 24.81 -19.7 22.44 -21.23 19.54 C-26.79 16.54 -34.27 16.5 -40.32 18.08 C-45.32 20.4 -46.97 24.34 -48.99 29.29 C-50.47 31.98 -51.41 32.44 -54.23 33.54 C-56.25 33.61 -56.25 33.61 -58.38 33.36 C-59.16 33.28 -59.93 33.19 -60.73 33.1 C-61.53 32.99 -62.34 32.89 -63.16 32.79 C-63.96 32.7 -64.76 32.61 -65.58 32.52 C-73.82 31.54 -73.82 31.54 -77.23 29.54 C-78.53 27 -78.27 25.71 -77.59 22.95 C-72.92 10.56 -66.65 2.46 -54.52 -3.18 C-38.13 -9.59 -15.09 -10.77 0 0 Z M-44.23 64.54 C-48.95 70.79 -50.02 75.85 -49.23 83.54 C-47.88 88.35 -46.23 90.9 -41.98 93.6 C-36.62 94.94 -32.81 95.09 -28.08 92.25 C-22.64 87.98 -19.51 83.35 -18.23 76.54 C-17.8 70.2 -17.99 63.87 -18.23 57.54 C-27.4 57.34 -37.04 58.25 -44.23 64.54 Z " fill="#030303" transform="translate(654.2265625,381.46484375)"/>
<path d="M0 0 C6.58 5.88 10.37 11.81 11.83 20.63 C11.92 22.52 11.97 24.4 11.99 26.29 C12 27.4 12.01 28.51 12.02 29.66 C12.02 30.85 12.03 32.04 12.04 33.27 C12.07 35.81 12.1 38.35 12.12 40.89 C12.17 44.89 12.2 48.88 12.23 52.88 C12.26 56.74 12.3 60.6 12.35 64.46 C12.35 65.65 12.36 66.83 12.36 68.05 C12.52 78.57 14.6 85.27 20.83 93.63 C21.79 95.52 21.79 95.52 21.83 97.63 C19.74 100.06 19.74 100.06 16.83 102.63 C15.91 103.49 14.99 104.35 14.04 105.24 C12.64 106.52 12.64 106.52 11.2 107.82 C10.26 108.68 9.32 109.54 8.35 110.43 C3.74 114.46 3.74 114.46 0.52 115.07 C-5.86 114.03 -9.53 108.12 -13.07 103.21 C-13.43 102.69 -13.8 102.17 -14.17 101.63 C-14.63 102 -15.09 102.36 -15.57 102.73 C-28.91 113.01 -40.38 117.22 -57.17 115.63 C-64.83 114.1 -71.15 110.67 -76.17 104.63 C-82.92 93.56 -83.78 81.96 -81.59 69.29 C-78.45 59.36 -70.89 51.75 -61.86 46.87 C-48.88 40.88 -33.41 38.63 -19.17 38.63 C-19.06 27.71 -19.06 27.71 -24.17 18.63 C-28.86 15.71 -33.83 16.14 -39.17 16.63 C-44.46 18.36 -46.46 20.86 -49.17 25.63 C-49.69 26.73 -50.2 27.82 -50.73 28.95 C-52.17 31.63 -52.17 31.63 -55.17 32.63 C-58.31 32.6 -61.42 32.21 -64.55 31.88 C-65.4 31.81 -66.25 31.73 -67.12 31.66 C-71.85 31.17 -75.26 30.56 -79.17 27.63 C-78.67 18.66 -75.07 10.84 -68.95 4.22 C-51.84 -11.08 -18.8 -14.28 0 0 Z M-45.17 63.63 C-50.22 69.07 -50.46 73.5 -50.39 80.68 C-50.05 85.29 -48.59 88.11 -45.48 91.45 C-41.39 93.55 -37.52 94.26 -33.09 93.08 C-27.6 90.7 -23.98 86.88 -21.17 81.63 C-19.13 76.03 -18.92 71.06 -19.05 65.2 C-19.06 64.37 -19.06 63.54 -19.07 62.69 C-19.1 60.67 -19.13 58.65 -19.17 56.63 C-29.13 56.5 -37.1 57.26 -45.17 63.63 Z " fill="#030303" transform="translate(372.171875,382.3671875)"/>
<path d="M0 0 C7.85 6.1 10.44 14.24 11.93 23.71 C12.18 26.87 12.21 30.01 12.2 33.17 C12.21 34.06 12.21 34.94 12.22 35.86 C12.23 38.75 12.23 41.64 12.23 44.53 C12.23 46.55 12.24 48.57 12.24 50.59 C12.25 54.81 12.25 59.02 12.25 63.24 C12.24 68.65 12.26 74.06 12.28 79.47 C12.29 83.64 12.3 87.8 12.29 91.97 C12.29 93.96 12.3 95.96 12.31 97.96 C12.32 100.74 12.31 103.51 12.3 106.29 C12.31 107.12 12.32 107.95 12.33 108.8 C12.3 111.09 12.3 111.09 11.93 114.71 C7.37 117.76 2.86 117.04 -2.51 117.03 C-3.56 117.04 -4.61 117.06 -5.69 117.08 C-6.7 117.08 -7.71 117.08 -8.75 117.08 C-9.68 117.08 -10.6 117.08 -11.55 117.09 C-14.7 116.62 -15.85 116.01 -18.07 113.71 C-18.47 111.12 -18.6 108.94 -18.57 106.34 C-18.57 105.59 -18.58 104.84 -18.59 104.07 C-18.59 102.45 -18.59 100.82 -18.59 99.2 C-18.57 96.62 -18.59 94.04 -18.6 91.46 C-18.63 86.92 -18.64 82.37 -18.63 77.82 C-18.63 70.55 -18.65 63.29 -18.69 56.03 C-18.7 53.5 -18.69 50.97 -18.68 48.44 C-18.69 46.87 -18.69 45.3 -18.7 43.74 C-18.69 43.04 -18.69 42.34 -18.68 41.63 C-18.74 36.01 -19.77 30.35 -23.55 26.02 C-26.51 23.48 -30.31 23.63 -34.07 23.71 C-38.28 24.9 -40.23 26.49 -42.32 30.21 C-46.29 39.62 -46.36 49.54 -46.38 59.6 C-46.38 61.86 -46.4 64.13 -46.42 66.39 C-46.47 72.82 -46.5 79.26 -46.53 85.69 C-46.54 89.64 -46.57 93.6 -46.61 97.55 C-46.62 99.06 -46.63 100.56 -46.63 102.06 C-46.63 104.15 -46.65 106.24 -46.67 108.33 C-46.68 110.11 -46.68 110.11 -46.69 111.93 C-46.81 112.85 -46.94 113.77 -47.07 114.71 C-51.63 117.76 -56.14 117.04 -61.51 117.03 C-62.56 117.04 -63.61 117.06 -64.69 117.08 C-65.7 117.08 -66.71 117.08 -67.75 117.08 C-68.68 117.08 -69.6 117.08 -70.55 117.09 C-73.61 116.64 -74.84 115.82 -77.07 113.71 C-77.57 111.57 -77.57 111.57 -77.58 109.05 C-77.59 108.09 -77.6 107.13 -77.61 106.14 C-77.6 105.09 -77.6 104.04 -77.59 102.96 C-77.59 101.85 -77.6 100.74 -77.61 99.6 C-77.63 95.93 -77.62 92.26 -77.6 88.59 C-77.6 86.05 -77.61 83.5 -77.61 80.96 C-77.62 75.62 -77.61 70.28 -77.59 64.95 C-77.57 58.78 -77.58 52.61 -77.6 46.44 C-77.62 40.5 -77.62 34.57 -77.61 28.63 C-77.6 26.11 -77.61 23.58 -77.62 21.05 C-77.63 17.53 -77.61 14 -77.59 10.47 C-77.6 9.42 -77.6 8.37 -77.61 7.29 C-77.6 6.33 -77.59 5.37 -77.58 4.38 C-77.58 3.55 -77.58 2.72 -77.57 1.86 C-77.07 -0.29 -77.07 -0.29 -75.18 -2.05 C-72.67 -3.52 -71.12 -3.67 -68.23 -3.68 C-67.31 -3.69 -66.39 -3.69 -65.45 -3.7 C-64.02 -3.68 -64.02 -3.68 -62.57 -3.66 C-61.62 -3.67 -60.67 -3.68 -59.69 -3.7 C-58.77 -3.69 -57.86 -3.69 -56.91 -3.68 C-56.08 -3.68 -55.25 -3.68 -54.39 -3.67 C-51.53 -3.19 -50.15 -2.29 -48.07 -0.29 C-47.46 2.85 -47.46 2.85 -47.32 6.4 C-47.26 7.58 -47.21 8.76 -47.15 9.98 C-47.12 10.88 -47.1 11.78 -47.07 12.71 C-46.54 11.84 -46.54 11.84 -46 10.96 C-40.93 2.93 -36.18 -2.43 -26.74 -4.81 C-17.07 -6.52 -8.42 -5.23 0 0 Z " fill="#030303" transform="translate(976.0703125,380.28515625)"/>
<path d="M0 0 C13.81 13.5 18.59 32.89 18.84 51.7 C18.64 69.58 13.36 86.74 1.06 100.06 C-8.81 109.35 -21.45 113.45 -34.85 113.1 C-46.68 111.86 -56.61 106.85 -65.19 98.75 C-79.51 80.76 -82.1 58.85 -79.97 36.46 C-77.9 21.77 -71.35 7.27 -59.69 -2.19 C-40.4 -15.99 -18.78 -13.25 0 0 Z M-40.81 15.69 C-46.24 22.69 -47.91 31.06 -48.19 39.75 C-48.23 40.92 -48.27 42.09 -48.31 43.3 C-48.9 65.44 -48.9 65.44 -40.95 85.46 C-38.08 88.4 -35.19 89.16 -31.25 89.44 C-26.67 89.16 -23.9 88.02 -20.66 84.79 C-10.72 71.01 -12.68 47.11 -15.07 31.22 C-16.27 24.23 -17.88 19.06 -23 13.94 C-29.39 10.47 -35.16 11.52 -40.81 15.69 Z " fill="#030303" transform="translate(865.1875,386.25)"/>
<path d="M0 0 C3.71 0.47 6.55 1.63 9.82 3.41 C11.19 4.14 11.19 4.14 12.6 4.9 C14.07 5.69 14.07 5.69 15.56 6.5 C102.11 52.33 202.42 60.2 295.8 32.02 C304.05 29.42 312.14 26.31 320.18 23.11 C321.26 22.69 322.34 22.28 323.45 21.84 C324.4 21.46 325.35 21.08 326.33 20.69 C329.35 19.91 331.06 20.04 334 21 C336 23 336 23 336.69 25.69 C335.74 30.25 333.65 31.45 329.94 34.09 C304.04 50.96 276.04 62.66 246 70 C245.15 70.21 244.29 70.42 243.41 70.63 C179.59 85.75 110.62 75.82 53 45 C52.35 44.66 51.7 44.31 51.03 43.95 C36.75 36.34 23.39 27.42 11 17 C10.45 16.53 9.89 16.07 9.32 15.59 C5.54 12.41 1.76 9.21 -2 6 C-1.12 1.12 -1.12 1.12 0 0 Z " fill="#030303" transform="translate(390,508)"/>
<path d="M0 0 C1.08 -0.01 1.08 -0.01 2.17 -0.02 C4.55 -0.03 6.92 -0.02 9.29 -0.01 C10.94 -0.01 12.58 -0.02 14.23 -0.02 C17.69 -0.02 21.14 -0.02 24.59 -0 C29.02 0.01 33.45 0 37.88 -0.01 C41.28 -0.02 44.68 -0.02 48.08 -0.01 C49.72 -0.01 51.35 -0.01 52.98 -0.02 C55.27 -0.03 57.55 -0.02 59.83 0 C61.78 0 61.78 0 63.76 0.01 C66.91 0.39 66.91 0.39 68.82 1.69 C71.96 6.56 70.96 14.89 69.91 20.39 C67.93 24.91 65.31 28.69 62.3 32.57 C60.35 35.12 58.53 37.76 56.7 40.4 C55.2 42.54 53.69 44.67 52.18 46.8 C48.01 52.65 43.91 58.54 39.81 64.44 C36.28 69.5 32.65 74.48 28.91 79.39 C29.86 79.49 29.86 79.49 30.82 79.58 C60.14 82.71 60.14 82.71 70.91 91.39 C72.79 95.15 72.14 99.69 72.16 103.83 C72.18 104.79 72.21 105.76 72.23 106.76 C72.23 108.15 72.23 108.15 72.24 109.57 C72.25 110.42 72.26 111.27 72.27 112.15 C71.84 114.84 70.99 115.7 68.91 117.39 C67.68 116.98 66.44 116.56 65.16 116.14 C64.34 115.87 63.51 115.59 62.66 115.31 C60.8 114.69 58.95 114.04 57.1 113.37 C35.79 105.8 14.37 106.93 -6.01 116.38 C-9.09 117.39 -9.09 117.39 -11.44 116.62 C-13.09 115.39 -13.09 115.39 -14.09 114.39 C-14.43 110.75 -14.41 107.1 -14.46 103.45 C-14.5 102.44 -14.54 101.43 -14.57 100.39 C-14.71 89.04 -9.58 81.57 -2.96 72.76 C-1.8 71.19 -0.64 69.61 0.52 68.03 C1.09 67.25 1.67 66.47 2.26 65.66 C4.69 62.32 7.03 58.93 9.35 55.51 C13.71 49.13 18.11 42.78 22.54 36.45 C23.16 35.57 23.77 34.68 24.41 33.77 C24.98 32.96 25.55 32.14 26.14 31.3 C26.91 30.2 26.91 30.2 27.69 29.08 C28.91 27.39 28.91 27.39 29.91 26.39 C28.26 26.37 28.26 26.37 26.57 26.34 C22.47 26.29 18.37 26.21 14.27 26.13 C12.5 26.09 10.72 26.06 8.95 26.04 C6.4 26.01 3.85 25.96 1.3 25.9 C0.51 25.89 -0.29 25.89 -1.1 25.88 C-6.54 25.74 -6.54 25.74 -9.09 24.13 C-10.33 21.96 -10.47 20.54 -10.48 18.04 C-10.49 17.21 -10.49 16.38 -10.5 15.52 C-10.48 14.22 -10.48 14.22 -10.46 12.89 C-10.47 12.02 -10.48 11.15 -10.5 10.26 C-10.49 9.01 -10.49 9.01 -10.48 7.73 C-10.48 6.97 -10.48 6.21 -10.47 5.43 C-9.38 -0.31 -5.04 0.01 0 0 Z " fill="#030303" transform="translate(703.0859375,376.61181640625)"/>
<path d="M0 0 C2.59 2.03 3.82 3.18 4.53 6.42 C4.3 26.99 -3.16 46.78 -17 62 C-19.66 64.38 -19.66 64.38 -22 66 C-24.31 65.75 -24.31 65.75 -26 65 C-25.43 60.3 -24.51 56.06 -22.97 51.59 C-22.57 50.41 -22.17 49.24 -21.76 48.03 C-21.35 46.82 -20.93 45.62 -20.5 44.38 C-19.67 41.97 -18.85 39.56 -18.03 37.15 C-17.67 36.09 -17.3 35.03 -16.92 33.94 C-15.21 28.49 -14.55 23.68 -15 18 C-16.8 15.4 -17.98 14.3 -21.01 13.41 C-25.39 12.81 -29.72 12.85 -34.12 12.88 C-35.54 12.88 -35.54 12.88 -36.98 12.88 C-42.59 12.92 -48.11 13.14 -53.69 13.78 C-57.47 14.14 -61.21 14.06 -65 14 C-65.33 12.68 -65.66 11.36 -66 10 C-51.2 -3.78 -18.4 -8.46 0 0 Z " fill="#030303" transform="translate(755,504)"/>
</svg>
