<?xml version="1.0" encoding="UTF-8"?>
<!-- Generator: visioncortex VTracer 0.6.3 -->
<svg version="1.1" xmlns="http://www.w3.org/2000/svg" width="1280" height="768">
<path d="M0 0 C422.4 0 844.8 0 1280 0 C1280 253.44 1280 506.88 1280 768 C857.6 768 435.2 768 0 768 C0 514.56 0 261.12 0 0 Z " fill="#FBFCFE" transform="translate(0,0)"/>
<path d="M0 0 C0.99 0 1.98 0 3 0 C5.35 3.53 5.25 4.97 5.25 9.15 C5.25 10.44 5.25 11.74 5.26 13.07 C5.25 14.52 5.25 15.96 5.24 17.41 C5.24 18.94 5.24 20.46 5.25 21.99 C5.25 26.21 5.24 30.42 5.23 34.63 C5.22 39.17 5.23 43.7 5.23 48.24 C5.23 56.11 5.22 63.97 5.21 71.84 C5.2 83.21 5.19 94.58 5.19 105.96 C5.18 124.41 5.17 142.86 5.15 161.31 C5.13 179.23 5.12 197.16 5.11 215.08 C5.11 216.19 5.11 217.29 5.11 218.43 C5.11 223.97 5.1 229.51 5.1 235.05 C5.08 281.03 5.04 327.02 5 373 C1 372.1 -2.36 370.67 -5.29 367.68 C-7.64 365.37 -10.25 363.43 -12.88 361.44 C-14.04 360.55 -15.21 359.66 -16.37 358.77 C-16.97 358.31 -17.57 357.85 -18.18 357.38 C-21.11 355.16 -24.02 352.92 -26.94 350.69 C-27.96 349.91 -28.98 349.13 -30.03 348.32 C-34.47 344.85 -38.77 341.24 -42.94 337.44 C-45.41 335.25 -47.78 333.44 -50.69 331.88 C-54.15 329.92 -56.2 327.8 -59 325 C-61.3 323.06 -63.68 321.22 -66.06 319.38 C-66.67 318.9 -67.29 318.42 -67.92 317.93 C-70.39 316 -72.86 314.1 -75.43 312.29 C-75.95 311.86 -76.47 311.44 -77 311 C-77 310.34 -77 309.68 -77 309 C-77.71 308.75 -78.43 308.49 -79.16 308.23 C-86.23 305.16 -92.32 299.71 -98.06 294.63 C-100.63 292.47 -103.31 290.5 -106 288.5 C-109.92 285.59 -113.69 282.62 -117.35 279.4 C-119.86 277.27 -122.5 275.33 -125.15 273.38 C-127.48 271.64 -129.74 269.82 -132 268 C-132.76 267.46 -133.53 266.93 -134.31 266.38 C-134.87 265.92 -135.43 265.47 -136 265 C-136 264.34 -136 263.68 -136 263 C-136.66 262.81 -137.32 262.63 -138 262.44 C-140.99 261.01 -142.58 259.59 -144.94 257.31 C-148.04 254.37 -148.04 254.37 -152.25 254 C-153.16 254.33 -154.07 254.66 -155 255 C-155.74 255.1 -156.49 255.21 -157.25 255.31 C-159.19 255.84 -159.19 255.84 -159.88 257.88 C-161.21 260.39 -162.33 261.11 -164.75 262.56 C-173.89 268.38 -182.28 275.37 -190.34 282.59 C-192.74 284.63 -195.38 286.27 -198 288 C-199.72 289.42 -201.39 290.88 -203.07 292.35 C-207.41 296.06 -211.83 299.72 -216.75 302.62 C-219.01 304.01 -220.56 305.6 -222.38 307.5 C-224.47 309.44 -226.74 311.03 -229.06 312.69 C-234.24 316.38 -239.09 320.37 -243.95 324.48 C-247.97 327.8 -252.14 330.88 -256.33 333.98 C-258.49 335.61 -260.54 337.27 -262.56 339.06 C-266.23 342.3 -270.2 345.08 -274.17 347.93 C-278.56 351.14 -282.78 354.57 -287 358 C-289.51 360.02 -292.02 362.03 -294.54 364.03 C-296.21 365.37 -297.87 366.73 -299.52 368.09 C-300.32 368.74 -301.12 369.39 -301.94 370.06 C-303 370.95 -303 370.95 -304.09 371.85 C-304.72 372.23 -305.35 372.61 -306 373 C-306.99 372.67 -307.98 372.34 -309 372 C-309 249.57 -309 127.14 -309 1 C-307.35 1 -305.7 1 -304 1 C-303.77 1.62 -303.55 2.24 -303.31 2.88 C-302.19 5.19 -302.19 5.19 -299.81 5.81 C-296.24 7.32 -293.63 9.6 -290.75 12.12 C-290.17 12.62 -289.6 13.12 -289.01 13.62 C-285.82 16.38 -282.68 19.18 -279.56 22 C-273.63 27.31 -267.3 32.13 -261 37 C-260.42 37.45 -259.83 37.9 -259.23 38.37 C-254.19 42.27 -249.14 46.17 -244 49.94 C-240.43 52.59 -237.06 55.48 -233.69 58.38 C-228.88 62.5 -223.94 66.29 -218.77 69.96 C-214.62 73.02 -210.73 76.35 -206.82 79.7 C-203.99 82.01 -201.04 83.98 -198 86 C-196.21 87.41 -194.44 88.85 -192.69 90.31 C-187.86 94.3 -182.96 98.18 -178 102 C-176.56 103.12 -175.12 104.25 -173.69 105.38 C-169.1 108.94 -164.45 112.42 -159.8 115.89 C-157.16 117.88 -154.57 119.92 -152 122 C-151.47 121.59 -150.94 121.18 -150.39 120.76 C-149.68 120.22 -148.98 119.68 -148.25 119.12 C-147.55 118.59 -146.86 118.06 -146.14 117.51 C-144 116 -144 116 -142.05 115.12 C-139.18 113.55 -137.27 111.33 -135 109 C-133.04 107.29 -131.06 105.6 -129.06 103.94 C-128.06 103.1 -127.06 102.26 -126.04 101.4 C-123 99 -123 99 -120.02 97.03 C-116.65 94.76 -113.67 92.23 -110.62 89.56 C-106.99 86.42 -103.45 83.47 -99.31 81 C-95.84 79.23 -95.84 79.23 -94 76 C-93.3 75.59 -92.6 75.18 -91.88 74.75 C-89.34 73.21 -87.39 71.66 -85.19 69.69 C-81.98 66.82 -78.68 64.22 -75.21 61.68 C-71.58 58.92 -68.11 55.98 -64.61 53.05 C-62 51 -62 51 -59.57 49.57 C-55.67 47.19 -52.4 44.14 -48.99 41.12 C-46.25 38.73 -43.61 36.69 -40.4 34.96 C-36.93 32.96 -34.75 30.89 -32 28 C-29.62 25.83 -27.19 23.73 -24.75 21.62 C-23.76 20.77 -23.76 20.77 -22.74 19.89 C-9.6 8.61 -9.6 8.61 -5.34 6.98 C-2.75 6.2 -2.75 6.2 -1.75 3.44 C-1.38 2.23 -1.38 2.23 -1 1 C-0.67 0.67 -0.34 0.34 0 0 Z " fill="#000204" transform="translate(804,124)"/>
<path d="M0 0 C3.74 0.66 5.69 1.22 8.44 3.88 C12.06 7.21 15.81 10.29 19.69 13.31 C20.29 13.78 20.9 14.26 21.52 14.74 C24.41 17 27.31 19.24 30.23 21.47 C31.79 22.66 31.79 22.66 33.38 23.88 C33.9 24.28 34.43 24.68 34.97 25.09 C39.32 28.44 43.57 31.9 47.81 35.38 C53.81 40.28 59.92 45 66.14 49.62 C72.27 54.18 78.29 58.89 84.28 63.64 C87.76 66.4 91.26 69.13 94.75 71.87 C97.67 74.17 100.59 76.47 103.5 78.79 C111.48 85.13 119.65 91.15 128 97 C132.38 94.55 136.13 91.59 140 88.44 C144.77 84.58 149.56 80.78 154.44 77.06 C160.14 72.7 165.72 68.2 171.27 63.64 C175.13 60.47 179.06 57.42 183.07 54.44 C185.99 52.26 188.84 50.01 191.69 47.75 C196.35 44.07 201.03 40.42 205.75 36.81 C209.43 34 213.08 31.15 216.69 28.25 C226.65 20.24 236.76 12.41 246.94 4.69 C247.85 3.99 248.77 3.29 249.71 2.57 C252 1 252 1 255 0 C255 83.49 255 166.98 255 253 C252.36 251.02 249.72 249.04 247 247 C245.57 245.94 245.57 245.94 244.12 244.87 C237.96 240.29 231.92 235.6 225.95 230.78 C225.38 230.32 224.81 229.86 224.23 229.38 C223.64 228.88 223.06 228.37 222.45 227.85 C219.94 225.85 219.94 225.85 216.57 224.23 C211.39 221.34 206.96 218.24 205.21 212.33 C203.98 204.09 204.4 195.76 204.63 187.46 C204.67 184.76 204.68 182.06 204.69 179.37 C204.74 173.01 204.85 166.67 204.99 160.32 C205.15 153.08 205.23 145.85 205.3 138.61 C205.44 123.74 205.69 108.87 206 94 C202.23 96.21 199 98.58 195.69 101.44 C190.91 105.5 185.98 109.32 180.94 113.06 C173.36 118.69 165.98 124.5 158.88 130.73 C149.34 139.08 139.29 146.6 129 154 C123.84 150.89 119 147.6 114.31 143.81 C113.09 142.84 111.88 141.87 110.66 140.9 C110.05 140.42 109.44 139.93 108.81 139.43 C106 137.21 103.16 135.05 100.31 132.88 C93.52 127.67 86.92 122.24 80.33 116.79 C74.33 111.85 68.23 107.06 62.04 102.36 C59.91 100.71 57.93 99.05 55.93 97.27 C52.98 94.99 51.56 94.55 48 94 C48.01 94.72 48.03 95.44 48.04 96.18 C48.37 115.52 48.66 134.87 48.91 154.21 C48.98 159.27 49.05 164.33 49.13 169.39 C49.22 175.72 49.29 182.04 49.34 188.37 C49.36 190.7 49.39 193.03 49.43 195.36 C49.49 198.59 49.51 201.82 49.52 205.05 C49.55 206 49.57 206.94 49.59 207.91 C49.58 212.5 49.48 214.38 46.59 218.12 C44 220 44 220 42 220 C41.73 220.61 41.47 221.21 41.2 221.84 C39.94 224.11 38.95 225.07 36.87 226.56 C36.23 227.02 35.6 227.48 34.95 227.96 C33.92 228.69 33.92 228.69 32.88 229.44 C26.22 234.29 19.79 239.34 13.49 244.63 C9.52 247.93 5.55 250.56 1 253 C-0.15 250.69 -0.12 249.4 -0.12 246.83 C-0.13 245.96 -0.13 245.08 -0.13 244.17 C-0.13 243.2 -0.12 242.23 -0.12 241.23 C-0.12 240.2 -0.12 239.18 -0.12 238.12 C-0.12 234.66 -0.12 231.19 -0.11 227.73 C-0.11 225.26 -0.11 222.79 -0.11 220.31 C-0.11 214.98 -0.11 209.64 -0.11 204.3 C-0.1 196.59 -0.09 188.87 -0.09 181.16 C-0.09 168.64 -0.08 156.13 -0.08 143.61 C-0.07 131.45 -0.06 119.29 -0.05 107.13 C-0.05 106.38 -0.05 105.63 -0.05 104.86 C-0.05 101.1 -0.05 97.34 -0.05 93.58 C-0.04 62.39 -0.02 31.19 0 0 Z " fill="#FBFCFE" transform="translate(524,185)"/>
<path d="M0 0 C1.29 -0 2.58 -0 3.9 -0.01 C6.62 -0.01 9.33 -0 12.05 0 C15.52 0.02 18.99 0.01 22.46 -0 C25.79 -0.01 29.11 -0 32.44 0 C33.68 -0 34.92 -0.01 36.2 -0.01 C37.36 -0.01 38.52 0 39.71 0.01 C40.73 0.01 41.75 0.01 42.79 0.01 C45.78 0.28 47.91 0.92 50.59 2.27 C54.81 7.76 54.05 14.53 54.05 21.14 C54.07 23.01 54.07 23.01 54.08 24.92 C54.09 28.21 54.09 31.51 54.08 34.81 C54.09 36.83 54.1 38.85 54.13 40.86 C54.17 44.75 54.18 48.63 54.18 52.52 C54.2 53.72 54.21 54.92 54.23 56.16 C54.22 57.28 54.21 58.41 54.2 59.56 C54.2 60.54 54.21 61.53 54.21 62.54 C53.33 66.41 51.71 67.88 48.59 70.27 C45.56 70.89 45.56 70.89 42.15 70.9 C40.87 70.91 39.58 70.92 38.26 70.93 C36.87 70.92 35.48 70.91 34.09 70.89 C32.65 70.9 31.22 70.9 29.78 70.9 C26.78 70.9 23.77 70.89 20.77 70.86 C16.93 70.83 13.09 70.83 9.24 70.85 C6.28 70.86 3.32 70.85 0.35 70.84 C-1.06 70.83 -2.48 70.84 -3.89 70.84 C-5.88 70.85 -7.86 70.82 -9.85 70.8 C-10.97 70.79 -12.1 70.79 -13.26 70.78 C-17.4 70.1 -20.44 68.24 -23.41 65.27 C-23.56 63.55 -23.63 61.84 -23.68 60.12 C-23.72 59.02 -23.75 57.93 -23.78 56.79 C-23.83 55 -23.83 55 -23.87 53.16 C-23.9 51.94 -23.93 50.71 -23.96 49.45 C-24.02 46.85 -24.08 44.25 -24.14 41.65 C-24.19 38.99 -24.27 36.33 -24.34 33.66 C-24.46 29.83 -24.54 26 -24.62 22.16 C-24.66 20.98 -24.7 19.79 -24.74 18.57 C-24.84 11.98 -24.82 7.38 -20.41 2.27 C-14.14 -0.79 -6.84 -0.02 0 0 Z " fill="#020406" transform="translate(204.4140625,525.734375)"/>
<path d="M0 0 C0.33 0 0.66 0 1 0 C1 81.84 1 163.68 1 248 C-1.64 246.02 -4.28 244.04 -7 242 C-8.43 240.94 -8.43 240.94 -9.88 239.87 C-16.04 235.29 -22.08 230.6 -28.05 225.78 C-28.62 225.32 -29.19 224.86 -29.77 224.38 C-30.36 223.88 -30.94 223.37 -31.55 222.85 C-34.06 220.85 -34.06 220.85 -37.43 219.23 C-42.61 216.34 -47.04 213.24 -48.79 207.33 C-50.02 199.09 -49.6 190.76 -49.37 182.46 C-49.33 179.76 -49.32 177.06 -49.31 174.37 C-49.26 168.01 -49.15 161.67 -49.01 155.32 C-48.85 148.08 -48.77 140.85 -48.7 133.61 C-48.56 118.74 -48.31 103.87 -48 89 C-51.77 91.21 -55 93.58 -58.31 96.44 C-63.09 100.5 -68.02 104.32 -73.06 108.06 C-80.67 113.72 -88.07 119.57 -95.22 125.8 C-101.56 131.32 -107.99 136.66 -114.69 141.75 C-115.37 142.28 -116.05 142.8 -116.76 143.34 C-121.64 147 -121.64 147 -125 147 C-126.6 143.5 -127.53 140.85 -127 137 C-125.09 135.15 -125.09 135.15 -122.38 133.38 C-121.37 132.69 -120.36 132 -119.32 131.29 C-118.78 130.92 -118.24 130.55 -117.68 130.17 C-114.78 128.15 -112.02 125.95 -109.25 123.75 C-108.67 123.29 -108.09 122.83 -107.48 122.36 C-99.71 116.2 -91.97 110.01 -84.25 103.78 C-79.08 99.61 -73.82 95.6 -68.49 91.63 C-63.4 87.82 -58.41 83.88 -53.41 79.96 C-40.67 70 -40.67 70 -38 70 C-38 108.94 -38 147.88 -38 188 C-37.34 188 -36.68 188 -36 188 C-36 194.6 -36 201.2 -36 208 C-34.02 208.99 -34.02 208.99 -32 210 C-30.04 211.38 -28.1 212.8 -26.19 214.25 C-25.66 214.65 -25.13 215.05 -24.58 215.46 C-21.64 217.7 -18.78 220 -16 222.44 C-13.58 224.5 -11.81 225.7 -9 227 C-9.03 226.31 -9.06 225.62 -9.09 224.91 C-10.42 191.57 -10.37 158.21 -10.44 124.85 C-10.47 113.29 -10.52 101.72 -10.61 90.15 C-10.66 81.94 -10.69 73.73 -10.7 65.52 C-10.71 60.65 -10.72 55.77 -10.77 50.9 C-10.81 46.33 -10.82 41.76 -10.81 37.19 C-10.81 35.52 -10.82 33.86 -10.85 32.19 C-11.01 20.67 -9.1 12.91 -3 3 C-2.01 3 -1.02 3 0 3 C0 2.01 0 1.02 0 0 Z " fill="#CBCCCE" transform="translate(778,190)"/>
<path d="M0 0 C0.99 0.5 0.99 0.5 2 1 C2 40.6 2 80.2 2 121 C-9.18 114.29 -9.18 114.29 -13.38 110.69 C-17.19 107.48 -21.06 104.41 -25.06 101.44 C-29.58 98.08 -34 94.62 -38.39 91.09 C-41.85 88.32 -45.37 85.63 -48.89 82.93 C-53.06 79.74 -57.19 76.5 -61.31 73.25 C-66.16 69.43 -71.04 65.67 -76 62 C-74.85 58.56 -74.11 58.09 -71.24 56.07 C-70.46 55.51 -69.67 54.95 -68.87 54.37 C-68.02 53.77 -67.18 53.18 -66.31 52.56 C-60.29 48.22 -54.4 43.83 -48.81 38.94 C-48.26 38.45 -47.71 37.97 -47.14 37.47 C-46.58 36.98 -46.02 36.5 -45.45 36 C-35.86 27.62 -25.83 19.78 -15.61 12.19 C-10.31 8.25 -5.12 4.18 0 0 Z " fill="#3C3C3E" transform="translate(729,278)"/>
<path d="M0 0 C1.26 -0.01 2.51 -0.01 3.8 -0.02 C5.18 -0.02 6.56 -0.01 7.94 -0.01 C9.35 -0.01 10.76 -0.01 12.18 -0.01 C15.15 -0.02 18.11 -0.01 21.08 -0 C24.87 0.01 28.65 0 32.44 -0.01 C35.36 -0.02 38.28 -0.01 41.2 -0.01 C42.6 -0.01 43.99 -0.01 45.39 -0.01 C63.2 -0.06 63.2 -0.06 68.46 4.26 C70.73 8.61 70.88 12.4 71.02 17.26 C71.05 17.93 71.08 18.59 71.1 19.28 C71.18 21.52 71.23 23.77 71.27 26.01 C71.3 26.73 71.32 27.45 71.34 28.19 C71.38 34.36 70.02 38.18 65.76 42.62 C62.34 44.67 60.17 44.67 56.21 44.51 C55.05 44.47 53.89 44.44 52.69 44.4 C51.81 44.35 50.93 44.31 50.02 44.26 C54.06 49.11 58.23 53.44 63.03 57.53 C65.05 59.28 66.99 61.08 68.9 62.95 C69.45 63.49 70.01 64.03 70.58 64.58 C72.12 66.37 73.06 68.12 74.02 70.26 C60.76 71.64 60.76 71.64 55.15 67.26 C53.4 65.64 51.7 63.96 50.02 62.26 C48.66 60.9 47.29 59.55 45.92 58.2 C42.43 54.74 38.99 51.24 35.56 47.71 C32.55 44.86 30.17 45.14 26.14 45.16 C24.39 45.17 24.39 45.17 22.61 45.17 C21.38 45.18 20.16 45.19 18.9 45.2 C17.67 45.2 16.44 45.21 15.17 45.21 C12.12 45.22 9.07 45.24 6.02 45.26 C6 47.01 6 47.01 5.98 48.8 C5.94 50.35 5.89 51.9 5.84 53.45 C5.83 54.22 5.83 54.98 5.82 55.78 C5.66 60.02 5.42 61.77 2.65 65.17 C1.78 65.86 0.92 66.55 0.02 67.26 C-0.9 68.02 -1.83 68.79 -2.79 69.57 C-3.51 70.13 -4.23 70.69 -4.98 71.26 C-7.86 68.37 -7.33 65.39 -7.39 61.52 C-7.41 60.73 -7.43 59.94 -7.45 59.13 C-7.51 56.55 -7.56 53.97 -7.6 51.38 C-7.64 49.61 -7.67 47.84 -7.71 46.07 C-7.82 40.8 -7.9 35.53 -7.98 30.26 C-7.99 29.49 -8 28.72 -8.01 27.92 C-8.08 23.26 -8.13 18.61 -8.16 13.95 C-8.18 12.78 -8.19 11.61 -8.2 10.41 C-8.2 8.83 -8.2 8.83 -8.21 7.21 C-8.21 6.29 -8.21 5.38 -8.22 4.44 C-7.66 -0.57 -4.16 0.01 0 0 Z " fill="#000204" transform="translate(923.97509765625,525.7412109375)"/>
<path d="M0 0 C1.28 -0.01 2.55 -0.02 3.86 -0.03 C5.27 -0.03 6.67 -0.04 8.07 -0.04 C9.5 -0.05 10.94 -0.05 12.37 -0.06 C15.39 -0.07 18.4 -0.08 21.42 -0.08 C25.26 -0.08 29.11 -0.11 32.95 -0.14 C35.92 -0.16 38.89 -0.16 41.86 -0.16 C43.28 -0.17 44.69 -0.17 46.11 -0.19 C60.15 -0.31 60.15 -0.31 66.93 3.16 C71.13 8.35 70.6 15.27 70.81 21.66 C70.87 22.78 70.93 23.89 70.99 25.04 C71.39 35.48 71.39 35.48 67.93 40.16 C65.11 43.1 63.67 44.07 59.6 44.55 C58.45 44.51 57.3 44.46 56.12 44.41 C54.96 44.38 53.8 44.34 52.6 44.3 C51.72 44.26 50.84 44.21 49.93 44.16 C55.91 51.21 62.12 58.21 69.37 63.97 C71.82 66.07 72.65 67.31 73.93 70.16 C71.77 70.33 69.6 70.44 67.43 70.54 C66.23 70.61 65.02 70.68 63.78 70.75 C56.52 69.64 52.44 64.93 47.94 59.42 C38.87 48.32 38.87 48.32 25.69 43.92 C19.06 43.77 12.5 44.25 5.93 45.16 C5.91 46.91 5.91 46.91 5.89 48.7 C5.84 50.25 5.79 51.8 5.75 53.35 C5.74 54.12 5.73 54.89 5.73 55.68 C5.56 59.95 5.34 61.67 2.51 65.06 C1.66 65.76 0.81 66.45 -0.07 67.16 C-1.09 68.34 -1.09 68.34 -2.13 69.54 C-2.77 70.07 -3.41 70.61 -4.07 71.16 C-5.39 70.83 -6.71 70.5 -8.07 70.16 C-8.07 47.39 -8.07 24.62 -8.07 1.16 C-5.31 -0.22 -3.08 0.02 0 0 Z " fill="#000204" transform="translate(648.06689453125,525.8388671875)"/>
<path d="M0 0 C4.06 2.36 7.51 5.32 11.08 8.36 C17.59 13.85 24.08 19.29 31.27 23.86 C32.09 24.44 32.92 25.01 33.77 25.61 C33.77 26.27 33.77 26.93 33.77 27.61 C32.84 28.08 31.91 28.56 30.96 29.05 C25.39 32.22 20.67 36.51 15.77 40.61 C9.79 45.48 3.71 50.21 -2.41 54.9 C-5.72 57.43 -8.99 60 -12.23 62.61 C-16.59 66.12 -21.01 69.55 -25.46 72.94 C-27.99 74.87 -30.48 76.81 -32.92 78.84 C-33.7 79.48 -34.49 80.13 -35.29 80.8 C-35.96 81.37 -36.64 81.94 -37.33 82.53 C-39.23 83.61 -39.23 83.61 -41.35 83.18 C-41.97 82.99 -42.59 82.8 -43.23 82.61 C-43.46 75.65 -43.62 68.7 -43.72 61.74 C-43.77 59.38 -43.83 57.01 -43.91 54.65 C-44.02 51.24 -44.07 47.84 -44.11 44.43 C-44.16 43.38 -44.2 42.33 -44.25 41.25 C-44.25 35.14 -43.33 32.03 -38.99 27.61 C-35.04 24.09 -30.8 20.96 -26.48 17.93 C-22.34 14.98 -18.32 11.89 -14.29 8.8 C-12.85 7.69 -11.4 6.58 -9.95 5.46 C-9.02 4.75 -9.02 4.75 -8.07 4.02 C-7.46 3.55 -6.86 3.09 -6.23 2.61 C-5.54 2.05 -4.85 1.49 -4.14 0.91 C-2.23 -0.39 -2.23 -0.39 0 0 Z " fill="#3B3B3D" transform="translate(618.23046875,312.390625)"/>
<path d="M0 0 C1.31 -0.01 2.63 -0.01 3.98 -0.02 C5.42 -0.02 6.86 -0.02 8.29 -0.02 C9.76 -0.03 11.23 -0.03 12.7 -0.03 C15.79 -0.04 18.87 -0.04 21.95 -0.04 C25.9 -0.04 29.85 -0.05 33.81 -0.07 C36.84 -0.08 39.88 -0.08 42.92 -0.08 C44.37 -0.08 45.83 -0.09 47.29 -0.1 C49.32 -0.11 51.36 -0.1 53.39 -0.1 C54.55 -0.1 55.71 -0.1 56.91 -0.1 C59.63 0.15 59.63 0.15 61.63 2.15 C59.87 3.8 58.1 5.44 56.32 7.08 C55.57 7.79 55.57 7.79 54.81 8.5 C50.67 12.31 47.96 13.26 42.43 13.35 C40.84 13.38 40.84 13.38 39.21 13.41 C37.5 13.44 37.5 13.44 35.75 13.46 C33.99 13.49 33.99 13.49 32.19 13.52 C28.44 13.59 24.69 13.65 20.95 13.71 C18.41 13.75 15.87 13.79 13.33 13.84 C7.09 13.95 0.86 14.05 -5.37 14.15 C-5.37 16.13 -5.37 18.11 -5.37 20.15 C-0.38 22.94 4.43 24.23 9.95 25.46 C11.81 25.89 13.68 26.32 15.54 26.75 C17.02 27.09 17.02 27.09 18.52 27.43 C23.98 28.68 29.43 29.98 34.88 31.27 C35.92 31.51 36.95 31.75 38.02 32 C40.9 32.69 43.77 33.4 46.63 34.15 C47.49 34.37 48.34 34.59 49.22 34.82 C52.85 35.87 55.25 36.82 58.16 39.28 C60.21 43.26 60.22 46.6 60.13 51.02 C60.16 52.19 60.16 52.19 60.18 53.38 C60.14 59.08 59.02 62.52 55.63 67.15 C51.67 70.14 48.75 70.52 43.84 70.5 C43.18 70.5 42.51 70.51 41.83 70.51 C39.66 70.51 37.48 70.49 35.3 70.47 C33.79 70.47 32.27 70.47 30.76 70.47 C27.59 70.46 24.42 70.45 21.26 70.43 C17.19 70.4 13.12 70.39 9.05 70.38 C5.93 70.38 2.81 70.37 -0.32 70.36 C-1.82 70.35 -3.32 70.35 -4.82 70.34 C-6.91 70.34 -9 70.32 -11.09 70.31 C-12.88 70.3 -12.88 70.3 -14.7 70.29 C-17.37 70.15 -17.37 70.15 -18.37 69.15 C-18.37 65.52 -18.37 61.89 -18.37 58.15 C3.08 58.15 24.53 58.15 46.63 58.15 C47.05 50.88 47.05 50.88 45.63 47.15 C44.72 47.02 44.72 47.02 43.79 46.9 C33.82 45.4 24.09 42.95 14.31 40.51 C11.31 39.77 8.31 39.04 5.3 38.31 C3.37 37.83 1.45 37.35 -0.48 36.87 C-1.81 36.55 -1.81 36.55 -3.17 36.22 C-8.49 34.88 -12.83 33.26 -17.37 30.15 C-18.57 26.55 -18.54 23.56 -18.55 19.77 C-18.57 18.46 -18.58 17.16 -18.6 15.81 C-18.32 11.45 -17.72 8.62 -14.75 5.38 C-14.15 4.89 -13.55 4.4 -12.93 3.9 C-12.33 3.4 -11.74 2.89 -11.12 2.38 C-7.54 -0.14 -4.24 0.01 0 0 Z " fill="#000204" transform="translate(1027.367431640625,525.854736328125)"/>
<path d="M0 0 C1.94 -0.01 1.94 -0.01 3.91 -0.02 C5.32 -0.02 6.72 -0.02 8.13 -0.02 C9.58 -0.03 11.02 -0.03 12.46 -0.03 C15.49 -0.04 18.51 -0.04 21.53 -0.04 C25.41 -0.04 29.29 -0.05 33.16 -0.07 C36.14 -0.08 39.12 -0.08 42.11 -0.08 C43.54 -0.08 44.96 -0.09 46.39 -0.1 C48.39 -0.11 50.39 -0.1 52.38 -0.1 C53.52 -0.1 54.65 -0.1 55.83 -0.1 C58.63 0.15 58.63 0.15 61.63 2.15 C61 2.62 60.37 3.09 59.73 3.57 C58.91 4.19 58.09 4.82 57.25 5.46 C56.44 6.07 55.63 6.69 54.79 7.32 C52.43 9.14 52.43 9.14 50.63 12.15 C47.6 13.28 44.61 13.3 41.4 13.35 C40.36 13.37 39.32 13.39 38.25 13.41 C37.13 13.43 36.01 13.44 34.86 13.46 C33.14 13.49 33.14 13.49 31.38 13.52 C27.71 13.59 24.04 13.65 20.38 13.71 C17.89 13.75 15.4 13.79 12.92 13.84 C6.82 13.95 0.72 14.05 -5.37 14.15 C-6.03 16.13 -6.69 18.11 -7.37 20.15 C-3.55 21.78 0.24 22.89 4.27 23.88 C4.91 24.04 5.55 24.2 6.21 24.36 C7.58 24.7 8.94 25.04 10.31 25.37 C12.46 25.9 14.6 26.43 16.75 26.97 C23.47 28.64 30.19 30.29 36.94 31.86 C38.58 32.26 38.58 32.26 40.25 32.65 C42.29 33.14 44.32 33.61 46.36 34.07 C54.64 36.05 54.64 36.05 57.63 40.15 C59.37 43.63 58.9 47.55 58.94 51.4 C58.98 52.67 58.98 52.67 59.03 53.96 C59.08 59.52 58.47 62.83 54.63 67.15 C50.66 70.07 47.83 70.52 42.94 70.52 C42.29 70.52 41.64 70.52 40.97 70.53 C38.83 70.54 36.69 70.52 34.55 70.51 C33.06 70.51 31.57 70.51 30.08 70.51 C26.97 70.51 23.85 70.5 20.73 70.48 C16.74 70.46 12.74 70.46 8.74 70.46 C5.67 70.47 2.59 70.46 -0.48 70.45 C-1.96 70.45 -3.43 70.45 -4.91 70.45 C-6.96 70.45 -9.02 70.44 -11.08 70.42 C-12.83 70.41 -12.83 70.41 -14.62 70.41 C-17.37 70.15 -17.37 70.15 -19.37 68.15 C-19.04 64.85 -18.71 61.55 -18.37 58.15 C2.75 57.82 23.87 57.49 45.63 57.15 C45.63 54.51 45.63 51.87 45.63 49.15 C37.05 46.08 28.26 43.93 19.44 41.71 C10.91 39.55 2.37 37.39 -6.11 35.05 C-7.18 34.75 -8.25 34.46 -9.35 34.15 C-12.59 33.07 -15.45 31.9 -18.37 30.15 C-19.11 27.3 -19.4 25.32 -19.44 22.46 C-19.46 21.74 -19.48 21.02 -19.51 20.27 C-19.59 14.14 -19.24 9.31 -14.97 4.6 C-10.17 0.26 -6.25 0.02 0 0 Z " fill="#000204" transform="translate(383.373291015625,525.854736328125)"/>
<path d="M0 0 C0.7 -0 1.4 -0 2.12 -0.01 C4.44 -0.01 6.75 -0.01 9.07 -0 C10.68 -0 12.28 -0.01 13.89 -0.01 C17.26 -0.01 20.63 -0.01 24 -0 C28.32 0 32.65 0 36.97 -0 C40.29 -0.01 43.61 -0.01 46.93 -0 C48.52 -0 50.12 -0 51.71 -0.01 C53.94 -0.01 56.16 -0.01 58.39 0 C60.29 0 60.29 0 62.23 0 C65.2 0.13 65.2 0.13 67.2 1.13 C65.72 5.03 63.71 6.07 60.2 8.13 C59.18 9.45 58.18 10.79 57.2 12.13 C54.28 13.1 52.31 13.28 49.26 13.33 C48.26 13.35 47.26 13.37 46.23 13.4 C45.15 13.41 44.08 13.43 42.96 13.45 C41.86 13.47 40.75 13.49 39.61 13.51 C36.08 13.57 32.54 13.63 29.01 13.69 C26.61 13.74 24.22 13.78 21.82 13.82 C15.95 13.93 10.07 14.03 4.2 14.13 C4.2 19.08 4.2 24.03 4.2 29.13 C5.86 29.11 5.86 29.11 7.56 29.1 C11.67 29.06 15.78 29.04 19.89 29.02 C21.67 29.01 23.46 29 25.24 28.98 C27.79 28.95 30.35 28.94 32.91 28.93 C34.1 28.92 34.1 28.92 35.33 28.9 C37.28 28.9 39.24 29.01 41.2 29.13 C43.2 31.13 43.2 31.13 43.2 41.13 C30.33 41.46 17.46 41.79 4.2 42.13 C4.2 46.75 4.2 51.37 4.2 56.13 C5.97 57.91 8.58 57.29 10.98 57.32 C12.84 57.34 12.84 57.34 14.74 57.37 C15.4 57.38 16.07 57.38 16.75 57.39 C18.83 57.41 20.9 57.44 22.98 57.47 C27.38 57.53 31.79 57.58 36.2 57.63 C41.3 57.69 46.4 57.75 51.5 57.82 C53.55 57.85 55.6 57.87 57.65 57.89 C59.51 57.91 59.51 57.91 61.41 57.94 C63.05 57.96 63.05 57.96 64.73 57.98 C67.2 58.13 67.2 58.13 68.2 59.13 C68.27 60.98 68.28 62.84 68.26 64.69 C68.25 65.7 68.24 66.72 68.23 67.76 C68.22 68.54 68.21 69.32 68.2 70.13 C58.45 70.15 48.71 70.17 38.96 70.18 C34.44 70.19 29.91 70.19 25.39 70.2 C21.03 70.22 16.66 70.22 12.3 70.22 C10.63 70.23 8.96 70.23 7.3 70.24 C4.97 70.24 2.64 70.24 0.31 70.24 C-0.73 70.25 -0.73 70.25 -1.8 70.25 C-6.58 70.24 -6.58 70.24 -8.8 69.13 C-8.8 46.69 -8.8 24.25 -8.8 1.13 C-5.87 -0.34 -3.28 0 0 0 Z " fill="#010204" transform="translate(1109.8046875,525.87060546875)"/>
<path d="M0 0 C1.15 0 2.29 0 3.47 0 C7.02 0.01 10.58 0.02 14.13 0.04 C16.59 0.04 19.04 0.04 21.49 0.05 C27.41 0.06 33.34 0.08 39.26 0.1 C39.75 2.08 39.75 2.08 40.26 4.1 C37.59 6.1 34.92 8.1 32.26 10.1 C31.66 10.62 31.06 11.14 30.45 11.67 C27.8 13.4 26.26 13.49 23.12 13.53 C22.1 13.55 21.08 13.57 20.03 13.59 C18.39 13.6 18.39 13.6 16.71 13.61 C15.58 13.63 14.46 13.65 13.3 13.66 C9.7 13.72 6.1 13.75 2.51 13.79 C0.07 13.82 -2.37 13.85 -4.81 13.89 C-10.79 13.97 -16.76 14.04 -22.74 14.1 C-22.74 19.05 -22.74 24 -22.74 29.1 C-21.64 29.07 -20.53 29.05 -19.39 29.02 C-15.3 28.93 -11.2 28.87 -7.1 28.82 C-5.32 28.8 -3.55 28.76 -1.78 28.72 C0.77 28.66 3.32 28.63 5.87 28.61 C6.66 28.58 7.46 28.56 8.28 28.53 C10.52 28.53 10.52 28.53 14.26 29.1 C16.75 31.99 17.22 33.54 17.51 37.35 C17.26 40.1 17.26 40.1 16.26 41.1 C13.38 41.26 10.51 41.36 7.63 41.41 C6.76 41.43 5.9 41.46 5.01 41.48 C2.24 41.54 -0.53 41.6 -3.3 41.66 C-5.18 41.7 -7.05 41.75 -8.93 41.79 C-13.53 41.9 -18.14 42 -22.74 42.1 C-22.74 47.05 -22.74 52 -22.74 57.1 C-20.84 57.11 -18.95 57.13 -16.99 57.14 C-10.73 57.19 -4.47 57.26 1.8 57.33 C5.59 57.38 9.39 57.42 13.19 57.44 C16.85 57.47 20.52 57.51 24.18 57.56 C25.58 57.58 26.98 57.59 28.38 57.6 C30.34 57.6 32.29 57.63 34.25 57.67 C35.36 57.68 36.48 57.69 37.63 57.7 C38.49 57.83 39.36 57.96 40.26 58.1 C42.49 61.45 42.43 62.01 41.88 65.79 C41.77 66.59 41.66 67.4 41.55 68.23 C41.45 68.85 41.36 69.46 41.26 70.1 C31.51 70.12 21.77 70.14 12.03 70.15 C7.5 70.15 2.98 70.16 -1.55 70.17 C-5.91 70.18 -10.28 70.19 -14.64 70.19 C-16.31 70.19 -17.97 70.2 -19.64 70.2 C-21.97 70.21 -24.3 70.21 -26.63 70.21 C-27.67 70.22 -27.67 70.22 -28.73 70.22 C-33.51 70.21 -33.51 70.21 -35.74 69.1 C-35.74 46.66 -35.74 24.22 -35.74 1.1 C-10.46 -0.05 -10.46 -0.05 0 0 Z " fill="#000204" transform="translate(860.7421875,525.90234375)"/>
<path d="M0 0 C2.17 -0.02 4.34 -0.04 6.51 -0.06 C7.61 -0.06 8.71 -0.07 9.84 -0.08 C12.27 0.03 12.27 0.03 14.27 1.03 C12.79 4.94 10.81 5.98 7.27 8.03 C6.31 9.3 6.31 9.3 5.33 10.59 C0.7 14.29 -3.61 13.76 -9.38 13.74 C-11.06 13.76 -11.06 13.76 -12.78 13.79 C-16.37 13.83 -19.96 13.84 -23.54 13.85 C-25.98 13.87 -28.41 13.9 -30.85 13.92 C-36.81 13.99 -42.77 14.02 -48.73 14.03 C-48.73 18.98 -48.73 23.93 -48.73 29.03 C-47.07 29.02 -47.07 29.02 -45.37 29 C-41.26 28.97 -37.14 28.94 -33.03 28.92 C-31.25 28.91 -29.47 28.9 -27.69 28.88 C-25.13 28.86 -22.58 28.85 -20.02 28.84 C-18.82 28.82 -18.82 28.82 -17.6 28.81 C-15.64 28.81 -13.68 28.91 -11.73 29.03 C-9.73 31.03 -9.73 31.03 -9.73 41.03 C-22.6 41.36 -35.47 41.69 -48.73 42.03 C-48.73 47.31 -48.73 52.59 -48.73 58.03 C-45.88 58.03 -45.88 58.03 -42.96 58.02 C-36.69 58 -30.42 57.99 -24.14 57.98 C-20.33 57.98 -16.53 57.97 -12.72 57.96 C-9.05 57.95 -5.38 57.94 -1.71 57.94 C-0.31 57.94 1.09 57.93 2.5 57.93 C4.45 57.92 6.41 57.92 8.37 57.92 C9.49 57.92 10.61 57.92 11.76 57.91 C14.27 58.03 14.27 58.03 15.27 59.03 C15.37 60.7 15.4 62.37 15.39 64.03 C15.4 65.4 15.4 65.4 15.4 66.78 C15.27 69.03 15.27 69.03 14.27 70.03 C11.93 70.13 9.62 70.17 7.29 70.16 C6.56 70.17 5.83 70.17 5.07 70.17 C2.65 70.17 0.22 70.17 -2.2 70.17 C-3.88 70.17 -5.56 70.17 -7.23 70.17 C-10.75 70.17 -14.27 70.17 -17.8 70.16 C-22.32 70.16 -26.84 70.16 -31.36 70.17 C-34.83 70.17 -38.3 70.17 -41.76 70.17 C-43.43 70.17 -45.1 70.17 -46.77 70.17 C-49.09 70.17 -51.42 70.17 -53.75 70.16 C-54.45 70.17 -55.14 70.17 -55.86 70.17 C-60.62 70.15 -60.62 70.15 -61.73 69.03 C-61.83 66.95 -61.86 64.87 -61.86 62.79 C-61.86 62.13 -61.86 61.48 -61.87 60.81 C-61.87 58.65 -61.87 56.48 -61.86 54.32 C-61.86 52.82 -61.87 51.32 -61.87 49.82 C-61.87 46.68 -61.87 43.53 -61.86 40.39 C-61.86 36.35 -61.86 32.31 -61.87 28.27 C-61.87 25.18 -61.87 22.08 -61.87 18.99 C-61.86 17.5 -61.87 16.01 -61.87 14.52 C-61.87 12.44 -61.87 10.36 -61.86 8.28 C-61.86 7.1 -61.86 5.91 -61.86 4.69 C-61.73 2.03 -61.73 2.03 -60.73 1.03 C-59 0.91 -57.27 0.86 -55.53 0.83 C-54.42 0.81 -53.31 0.79 -52.16 0.77 C-50.34 0.74 -50.34 0.74 -48.47 0.72 C-47.22 0.7 -45.97 0.68 -44.68 0.65 C-42.02 0.61 -39.36 0.57 -36.7 0.53 C-32.67 0.47 -28.65 0.41 -24.62 0.34 C-16.41 0.21 -8.21 0.1 0 0 Z " fill="#000204" transform="translate(610.7313232421875,525.9656372070313)"/>
<path d="M0 0 C3.39 1.3 5.79 2.44 8.44 4.94 C13.81 9.8 19.51 14.23 25.25 18.65 C26.39 19.53 27.52 20.41 28.64 21.29 C30.13 22.46 31.63 23.6 33.12 24.75 C33.97 25.4 34.82 26.06 35.7 26.73 C37.85 28.22 37.85 28.22 39.95 27.73 C43.43 26.49 45.92 23.81 48.62 21.38 C53.45 17.12 58.32 13.26 63.67 9.67 C67.72 6.77 71.35 3.39 75 0 C76.48 1.04 76.48 1.04 78 3 C78.25 5.56 78.32 7.86 78.25 10.41 C78.24 11.16 78.23 11.91 78.22 12.69 C78.19 15.17 78.13 17.65 78.07 20.14 C78.05 21.86 78.02 23.58 77.99 25.3 C77.92 29.84 77.83 34.37 77.74 38.9 C77.65 43.53 77.58 48.15 77.5 52.78 C77.35 61.85 77.18 70.93 77 80 C68.49 75.82 68.49 75.82 65 72 C64.13 68.7 64.16 65.5 64.2 62.11 C64.17 60.68 64.17 60.68 64.15 59.23 C64.12 56.22 64.12 53.2 64.12 50.19 C64.11 48.14 64.09 46.09 64.06 44.04 C64.01 39.03 64 34.01 64 29 C60.16 29 59.55 30.03 56.81 32.62 C53.27 35.89 49.67 38.82 45.73 41.58 C43.78 43.18 42.44 44.93 41 47 C34.3 45.97 29.41 40.7 24.64 36.29 C20.89 33.03 16.94 30.03 13 27 C13.05 28.29 13.1 29.57 13.16 30.9 C13.34 35.7 13.45 40.5 13.55 45.3 C13.6 47.38 13.67 49.45 13.75 51.52 C14.5 69.68 14.5 69.68 10.8 74.42 C4.72 80 4.72 80 1 80 C-0.5 76.99 -0.13 73.91 -0.11 70.61 C-0.11 69.85 -0.11 69.09 -0.11 68.31 C-0.11 65.79 -0.11 63.26 -0.1 60.74 C-0.1 59 -0.09 57.25 -0.09 55.5 C-0.09 50.9 -0.08 46.3 -0.07 41.7 C-0.06 37.01 -0.05 32.32 -0.05 27.63 C-0.04 18.42 -0.02 9.21 0 0 Z " fill="#000204" transform="translate(89,517)"/>
<path d="M0 0 C3.69 0.66 5.93 1.37 8.89 3.7 C9.6 4.24 10.3 4.79 11.03 5.35 C11.76 5.94 12.49 6.52 13.25 7.12 C14.01 7.72 14.77 8.32 15.56 8.93 C17.71 10.61 19.86 12.31 22 14 C23.58 15.23 25.17 16.46 26.75 17.69 C27.76 18.47 27.76 18.47 28.79 19.28 C31.03 21.02 33.28 22.75 35.54 24.48 C53.52 38.28 53.52 38.28 60.72 44.26 C62.97 46.17 62.97 46.17 66 47 C65.93 45.4 65.93 45.4 65.86 43.77 C65.69 39.81 65.55 35.85 65.41 31.89 C65.34 30.18 65.28 28.47 65.2 26.76 C65.09 24.29 65.01 21.83 64.93 19.36 C64.89 18.6 64.85 17.84 64.81 17.06 C64.68 12.45 65.18 9.67 68 6 C69.72 4.2 69.72 4.2 71.5 2.69 C72.09 2.18 72.68 1.66 73.28 1.14 C75 0 75 0 78 0 C78.33 24.09 78.66 48.18 79 73 C74.72 70.86 72.09 69.47 68.62 66.56 C64.29 63.01 59.87 59.6 55.38 56.25 C54.7 55.74 54.02 55.23 53.32 54.71 C50.51 52.62 47.7 50.52 44.89 48.43 C37.22 42.73 29.63 37.01 22.33 30.84 C18.11 27.31 18.11 27.31 13 26 C13.05 27.11 13.1 28.22 13.16 29.36 C13.34 33.51 13.45 37.65 13.55 41.8 C13.6 43.58 13.67 45.37 13.75 47.16 C14.46 62.07 14.46 62.07 10.73 67 C8.23 69 5.86 70.59 3 72 C0.17 69.17 0.72 67.31 0.68 63.35 C0.67 62.66 0.66 61.98 0.65 61.28 C0.62 59.02 0.6 56.75 0.59 54.49 C0.57 52.93 0.55 51.36 0.53 49.79 C0.48 45.67 0.44 41.54 0.4 37.41 C0.36 33.2 0.31 28.99 0.26 24.79 C0.16 16.52 0.08 8.26 0 0 Z " fill="#000204" transform="translate(272,525)"/>
<path d="M0 0 C7.23 -0.03 14.45 -0.04 21.68 -0.05 C24.14 -0.06 26.6 -0.07 29.06 -0.08 C32.59 -0.09 36.12 -0.09 39.65 -0.1 C40.75 -0.1 41.86 -0.11 43 -0.11 C44.02 -0.11 45.04 -0.11 46.09 -0.11 C46.99 -0.12 47.89 -0.12 48.82 -0.12 C51 0 51 0 53 1 C53.02 7.11 53.04 13.21 53.05 19.32 C53.06 21.4 53.07 23.47 53.08 25.55 C53.09 28.53 53.09 31.52 53.1 34.5 C53.1 35.43 53.11 36.37 53.11 37.33 C53.11 38.19 53.11 39.05 53.11 39.94 C53.12 40.7 53.12 41.46 53.12 42.25 C53 44 53 44 52 45 C50.4 45.09 48.8 45.12 47.2 45.11 C46.18 45.11 45.16 45.11 44.11 45.11 C43 45.11 41.89 45.1 40.75 45.1 C39.62 45.1 38.48 45.09 37.32 45.09 C33.69 45.09 30.07 45.08 26.44 45.06 C23.99 45.06 21.53 45.05 19.08 45.05 C13.05 45.04 7.03 45.02 1 45 C-0.68 41.65 -0.27 37.85 -0.35 34.16 C-0.37 33.28 -0.4 32.4 -0.42 31.5 C-0.47 29.64 -0.51 27.78 -0.56 25.92 C-0.62 23.08 -0.7 20.23 -0.78 17.38 C-0.83 15.58 -0.87 13.78 -0.91 11.97 C-0.94 11.12 -0.96 10.27 -0.99 9.39 C-1.06 5.98 -1.08 3.25 0 0 Z " fill="#FBFCFE" transform="translate(193,539)"/>
<path d="M0 0 C12.14 -1.35 12.14 -1.35 15.98 1.44 C17.63 3.87 18.8 6.32 20 9 C20.6 10.2 21.2 11.4 21.81 12.6 C23.18 15.29 24.52 18 25.85 20.72 C29.61 28.3 33.84 35.67 38.15 42.95 C41 47.79 41 47.79 41 50 C41.66 50 42.32 50 43 50 C43 50.66 43 51.32 43 52 C43.99 52 44.98 52 46 52 C46.38 50.74 46.38 50.74 46.77 49.45 C48.1 45.72 49.8 42.33 51.69 38.88 C52.04 38.22 52.39 37.57 52.75 36.9 C56.03 30.86 59.49 24.92 63 19 C64.9 15.79 66.74 12.66 68.12 9.19 C69 7 69 7 71 5 C71.16 4.32 71.33 3.64 71.5 2.94 C71.66 2.3 71.83 1.66 72 1 C74.88 -0.44 77.42 -0.09 80.62 -0.06 C81.81 -0.05 83 -0.04 84.23 -0.04 C85.14 -0.02 86.06 -0.01 87 0 C87.58 2.41 87.58 2.41 88 5 C86.69 6.5 86.69 6.5 85 8 C84.32 9.66 83.65 11.33 83 13 C82.19 14.56 81.36 16.1 80.5 17.62 C77.14 23.71 73.91 29.85 70.69 36.01 C67.48 42.14 64.14 48.18 60.76 54.22 C57.67 59.75 54.69 65.33 51.75 70.94 C51.08 72.21 51.08 72.21 50.4 73.51 C48.17 77.74 48.17 77.74 46 82 C43.11 81.44 41.42 80.57 39.67 78.19 C38.25 75.74 36.92 73.26 35.62 70.75 C35.14 69.85 34.66 68.95 34.17 68.02 C30.85 61.76 27.66 55.43 24.53 49.08 C20.29 40.56 15.48 32.4 10.62 24.22 C7.85 19.53 5.27 14.8 2.94 9.88 C1.93 7.75 1.93 7.75 0 5 C-0.12 2.31 -0.12 2.31 0 0 Z " fill="#000204" transform="translate(730,516)"/>
<path d="M0 0 C1.49 -0.03 1.49 -0.03 3.01 -0.05 C3.87 -0.08 4.73 -0.1 5.62 -0.12 C7.69 0.08 7.69 0.08 9.69 2.08 C9.69 5.71 9.69 9.34 9.69 13.08 C-0.87 13.08 -11.43 13.08 -22.31 13.08 C-22.3 17.11 -22.29 21.15 -22.28 25.3 C-22.27 28.5 -22.26 31.71 -22.26 34.92 C-22.25 38.31 -22.25 41.69 -22.24 45.08 C-22.22 48.97 -22.22 52.85 -22.21 56.74 C-22.21 57.96 -22.2 59.18 -22.2 60.43 C-22.2 61.55 -22.2 62.67 -22.2 63.83 C-22.2 64.82 -22.19 65.81 -22.19 66.84 C-22.31 69.08 -22.31 69.08 -23.31 70.08 C-25.14 70.18 -26.98 70.21 -28.81 70.21 C-29.81 70.21 -30.81 70.21 -31.84 70.22 C-34.31 70.08 -34.31 70.08 -35.31 69.08 C-35.4 67.37 -35.43 65.64 -35.42 63.92 C-35.42 62.82 -35.42 61.72 -35.42 60.58 C-35.42 59.39 -35.41 58.19 -35.41 56.95 C-35.41 55.74 -35.41 54.52 -35.4 53.26 C-35.4 49.35 -35.39 45.43 -35.37 41.52 C-35.37 38.88 -35.36 36.23 -35.36 33.59 C-35.35 27.09 -35.33 20.58 -35.31 14.08 C-36.24 14.06 -37.18 14.03 -38.14 14.01 C-41.59 13.91 -45.05 13.81 -48.5 13.71 C-50 13.67 -51.49 13.63 -52.99 13.59 C-55.14 13.53 -57.29 13.47 -59.43 13.4 C-60.73 13.36 -62.02 13.33 -63.35 13.29 C-66.31 13.08 -66.31 13.08 -67.31 12.08 C-67.38 10.23 -67.39 8.38 -67.37 6.52 C-67.36 5.51 -67.36 4.5 -67.35 3.45 C-67.33 2.67 -67.32 1.89 -67.31 1.08 C-59.16 0.95 -51 0.82 -42.85 0.69 C-39.06 0.63 -35.27 0.57 -31.48 0.51 C-27.82 0.45 -24.16 0.39 -20.49 0.34 C-19.11 0.31 -17.72 0.29 -16.33 0.27 C-13.14 0.22 -9.96 0.17 -6.77 0.13 C-4.51 0.1 -2.26 0.06 0 0 Z " fill="#000204" transform="translate(524.3111267089844,525.916259765625)"/>
<path d="M0 0 C0.66 0.33 1.32 0.66 2 1 C2 23.11 2 45.22 2 68 C-3.18 65.41 -5.23 63.97 -9 60 C-12.93 56.59 -16.97 53.3 -21 50 C-21.86 49.29 -22.73 48.58 -23.62 47.86 C-29.59 43.02 -35.75 38.47 -42 34 C-38.22 30.07 -34.21 26.63 -29.94 23.25 C-29.28 22.73 -28.62 22.2 -27.94 21.66 C-22.96 17.72 -17.91 13.9 -12.81 10.11 C-8.46 6.84 -4.22 3.43 0 0 Z " fill="#000204" transform="translate(729,278)"/>
<path d="M0 0 C0 40.59 0 81.18 0 123 C-3.53 118.3 -4.12 116.9 -4.21 111.23 C-4.23 110.01 -4.25 108.79 -4.27 107.53 C-4.28 106.18 -4.3 104.83 -4.32 103.48 C-4.34 102.09 -4.36 100.69 -4.38 99.29 C-4.44 95.55 -4.48 91.81 -4.53 88.07 C-4.56 85.76 -4.59 83.45 -4.63 81.14 C-4.95 58.1 -5.15 35.05 -5 12 C-5.56 13.11 -6.11 14.23 -6.69 15.38 C-8.68 18.88 -10.14 19.72 -14 21 C-16.01 22.58 -17.91 24.17 -19.81 25.88 C-24.76 30.19 -29.85 34.22 -35.12 38.12 C-42.72 43.76 -50.09 49.59 -57.22 55.8 C-63.56 61.32 -69.99 66.66 -76.69 71.75 C-77.37 72.28 -78.05 72.8 -78.76 73.34 C-83.64 77 -83.64 77 -87 77 C-88.6 73.5 -89.53 70.85 -89 67 C-87.09 65.15 -87.09 65.15 -84.38 63.38 C-83.37 62.69 -82.36 62 -81.32 61.29 C-80.78 60.92 -80.24 60.55 -79.68 60.17 C-76.78 58.15 -74.02 55.95 -71.25 53.75 C-70.67 53.29 -70.09 52.83 -69.48 52.36 C-61.71 46.2 -53.97 40.01 -46.25 33.78 C-41.08 29.61 -35.82 25.6 -30.49 21.63 C-26.17 18.39 -21.9 15.07 -17.62 11.75 C-16.86 11.16 -16.1 10.57 -15.32 9.96 C-12.03 7.4 -8.79 4.83 -5.65 2.08 C-3 0 -3 0 0 0 Z " fill="#949596" transform="translate(740,260)"/>
<path d="M0 0 C4.17 0.54 6.46 2.86 9.56 5.56 C13.36 8.82 17.17 11.92 21.25 14.81 C26.65 18.66 31.76 22.81 36.89 27.01 C45.75 34.26 54.78 41.29 63.83 48.3 C66.15 50.09 68.45 51.9 70.76 53.71 C73.32 55.71 75.89 57.67 78.52 59.57 C86.4 65.49 86.4 65.49 87.62 70.88 C87.77 72.25 87.89 73.62 88 75 C88.33 75.99 88.66 76.98 89 78 C83.03 78 77.99 72.51 73.44 68.88 C72.2 67.9 70.96 66.92 69.73 65.94 C69.11 65.45 68.48 64.96 67.84 64.45 C65.02 62.23 62.17 60.05 59.31 57.88 C52.52 52.67 45.92 47.24 39.33 41.79 C33.33 36.85 27.23 32.06 21.04 27.36 C18.9 25.7 16.84 24.02 14.79 22.25 C12.01 20.01 10.5 19.31 7 19 C6.67 19.99 6.34 20.98 6 22 C5.94 20.05 5.94 20.05 5.88 18.06 C5.36 13 3.29 9.97 0.18 6.04 C-1 4 -1 4 -0.68 1.74 C-0.46 1.16 -0.23 0.59 0 0 Z " fill="#CBCCCE" transform="translate(565,260)"/>
<path d="M0 0 C0.99 -0.01 1.98 -0.02 3 -0.03 C4.08 -0.03 5.16 -0.04 6.27 -0.04 C7.38 -0.05 8.48 -0.05 9.61 -0.06 C11.95 -0.07 14.28 -0.08 16.62 -0.08 C20.2 -0.09 23.78 -0.12 27.36 -0.15 C29.62 -0.16 31.88 -0.16 34.15 -0.17 C35.76 -0.19 35.76 -0.19 37.41 -0.2 C38.4 -0.2 39.4 -0.2 40.43 -0.2 C41.75 -0.2 41.75 -0.2 43.09 -0.21 C45.84 0.24 46.72 0.93 48.34 3.16 C48.71 6.19 48.71 6.19 48.66 9.66 C48.65 10.81 48.65 11.95 48.65 13.13 C48.34 16.16 48.34 16.16 46.34 19.16 C44.22 19.54 44.22 19.54 41.56 19.55 C40.07 19.56 40.07 19.56 38.55 19.58 C37.47 19.57 36.39 19.57 35.28 19.56 C34.18 19.56 33.08 19.57 31.94 19.57 C29.61 19.57 27.27 19.56 24.94 19.55 C21.36 19.54 17.78 19.55 14.2 19.57 C11.93 19.57 9.67 19.57 7.41 19.56 C6.33 19.57 5.25 19.57 4.14 19.58 C3.15 19.57 2.15 19.56 1.13 19.55 C0.25 19.55 -0.63 19.54 -1.53 19.54 C-2.23 19.42 -2.93 19.29 -3.66 19.16 C-6.1 15.5 -5.92 12.76 -5.84 8.54 C-5.84 7.84 -5.84 7.15 -5.84 6.43 C-5.79 0.67 -5.7 0.04 0 0 Z " fill="#F8F9FB" transform="translate(658.65576171875,538.8388671875)"/>
<path d="M0 0 C7.23 -0.03 14.45 -0.04 21.68 -0.05 C24.14 -0.06 26.6 -0.07 29.06 -0.08 C32.59 -0.09 36.12 -0.09 39.65 -0.1 C40.75 -0.1 41.86 -0.11 43 -0.11 C44.02 -0.11 45.04 -0.11 46.09 -0.11 C46.99 -0.12 47.89 -0.12 48.82 -0.12 C51 0 51 0 53 1 C53.37 3.68 53.61 6.25 53.75 8.94 C53.81 9.68 53.86 10.42 53.92 11.19 C54.03 13.12 54.02 15.06 54 17 C51.49 19.51 50.68 19.25 47.21 19.26 C46.22 19.27 45.23 19.27 44.2 19.28 C43.12 19.27 42.05 19.27 40.94 19.27 C39.84 19.27 38.73 19.27 37.6 19.27 C35.26 19.27 32.93 19.27 30.6 19.26 C27.01 19.25 23.43 19.26 19.85 19.27 C17.59 19.27 15.33 19.27 13.06 19.27 C11.99 19.27 10.91 19.27 9.8 19.28 C8.8 19.27 7.81 19.27 6.79 19.26 C5.91 19.26 5.03 19.26 4.13 19.25 C2 19 2 19 0 17 C-0.15 14.09 -0.19 11.28 -0.12 8.38 C-0.12 7.57 -0.11 6.77 -0.1 5.95 C-0.07 3.96 -0.04 1.98 0 0 Z " fill="#F9FAFC" transform="translate(929,539)"/>
<path d="M0 0 C2.44 -0.08 4.87 -0.14 7.31 -0.19 C8.35 -0.23 8.35 -0.23 9.4 -0.26 C14.56 -0.34 14.56 -0.34 16.98 1.51 C17.32 2 17.65 2.49 18 3 C18.66 2.01 19.32 1.02 20 0 C21.32 0.33 22.64 0.66 24 1 C24.36 2.48 24.71 3.96 25.06 5.44 C25.36 6.67 25.36 6.67 25.66 7.93 C25.77 8.62 25.88 9.3 26 10 C24.06 11.94 20.63 11.22 18.06 11.25 C16.8 11.28 15.53 11.3 14.22 11.33 C12.63 11.17 12.63 11.17 11 11 C10.34 10.01 9.68 9.02 9 8 C9.66 8 10.32 8 11 8 C10.01 6.68 9.02 5.36 8 4 C6.67 6.67 7.33 8.17 8 11 C7.01 11.33 6.02 11.66 5 12 C2.8 9.8 2.71 8.91 2 6 C1.34 5.01 0.68 4.02 0 3 C0 2.01 0 1.02 0 0 Z " fill="#0E1012" transform="translate(1191,584)"/>
<path d="M0 0 C0.66 0.33 1.32 0.66 2 1 C2.02 6.39 2.04 11.79 2.05 17.18 C2.06 19.02 2.07 20.85 2.08 22.69 C2.09 25.32 2.09 27.96 2.1 30.59 C2.1 31.42 2.11 32.24 2.11 33.09 C2.11 35.06 2.06 37.03 2 39 C1.5 39.5 1.5 39.5 1 40 C0.76 42.53 0.58 45.03 0.44 47.56 C0.39 48.27 0.35 48.98 0.31 49.72 C0.2 51.48 0.1 53.24 0 55 C-0.33 55 -0.66 55 -1 55 C-1.33 60.61 -1.66 66.22 -2 72 C-2.33 72 -2.66 72 -3 72 C-3.07 63.65 -3.12 55.29 -3.16 46.94 C-3.17 43.06 -3.19 39.18 -3.23 35.3 C-3.26 31.55 -3.28 27.8 -3.28 24.06 C-3.29 22.63 -3.3 21.2 -3.32 19.78 C-3.47 6.01 -3.47 6.01 0 0 Z " fill="#CCCDCF" transform="translate(734,271)"/>
<path d="M0 0 C-0.25 2.38 -0.25 2.38 -1 5 C-2.88 6.12 -2.88 6.12 -5 7 C-5.45 7.48 -5.9 7.95 -6.36 8.45 C-8.26 10.24 -9.87 10.86 -12.31 11.75 C-15.61 13.15 -17.58 14.34 -19.75 17.19 C-23.98 22.75 -30.22 26.22 -36 30 C-36.66 29.67 -37.32 29.34 -38 29 C-37.13 28.37 -36.27 27.75 -35.38 27.1 C-34.25 26.28 -33.12 25.45 -32 24.62 C-31.43 24.21 -30.86 23.8 -30.27 23.38 C-28.81 22.3 -27.4 21.15 -26 20 C-26 19.34 -26 18.68 -26 18 C-24.53 16.66 -24.53 16.66 -22.49 15.14 C-21.38 14.3 -21.38 14.3 -20.25 13.45 C-19.47 12.87 -18.68 12.29 -17.88 11.69 C-16.35 10.55 -14.83 9.4 -13.3 8.26 C-12.57 7.71 -11.83 7.16 -11.08 6.6 C-9.2 5.15 -7.41 3.64 -5.63 2.08 C-3 0 -3 0 0 0 Z " fill="#7F8081" transform="translate(740,260)"/>
<path d="M0 0 C3.93 1.36 6.6 3.11 9.75 5.81 C15.38 10.54 21.19 14.99 27.07 19.39 C31.02 22.37 34.6 25.4 38 29 C34.08 29 33.25 27.79 30.31 25.25 C25.6 21.28 20.77 17.54 15.81 13.88 C4.13 5.19 4.13 5.19 0 1 C0 0.67 0 0.34 0 0 Z " fill="#F9FAFC" transform="translate(576,278)"/>
<path d="M0 0 C2.06 0.44 2.06 0.44 4 1 C4.36 2.48 4.71 3.96 5.06 5.44 C5.26 6.26 5.46 7.08 5.66 7.93 C5.77 8.62 5.88 9.3 6 10 C5 11 5 11 2 11.12 C-1 11 -1 11 -2 10 C-1.91 7.97 -1.91 7.97 -1.62 5.5 C-1.53 4.69 -1.44 3.87 -1.35 3.03 C-1 1 -1 1 0 0 Z " fill="#0D0F11" transform="translate(1211,584)"/>
<path d="M0 0 C0.66 0.33 1.32 0.66 2 1 C-6.49 8.25 -15.06 15.31 -24 22 C-24.66 21.67 -25.32 21.34 -26 21 C-19.72 15.72 -13.42 10.48 -6.91 5.47 C-4.58 3.68 -2.29 1.85 0 0 Z " fill="#6F7071" transform="translate(683,304)"/>
<path d="M0 0 C14.45 9.34 14.45 9.34 16 14 C12.58 12.46 9.81 10.45 6.88 8.12 C6.01 7.45 5.14 6.77 4.24 6.07 C2.11 4.1 1.06 2.66 0 0 Z " fill="#FAFBFD" transform="translate(598,294)"/>
<path d="M0 0 C0.66 0.33 1.32 0.66 2 1 C2 2.98 2 4.96 2 7 C0.72 7.06 -0.56 7.12 -1.88 7.19 C-2.59 7.22 -3.31 7.26 -4.05 7.29 C-4.7 7.2 -5.34 7.1 -6 7 C-6.66 6.01 -7.32 5.02 -8 4 C-5 3 -5 3 -2 3 C-1.34 2.01 -0.68 1.02 0 0 Z " fill="#414143" transform="translate(1208,588)"/>
<path d="M0 0 C0.99 0 1.98 0 3 0 C2.75 2.38 2.75 2.38 2 5 C0.12 6.12 0.12 6.12 -2 7 C-2.71 7.77 -2.71 7.77 -3.44 8.56 C-5.49 10.45 -7.28 10.63 -10 11 C-5 6 -5 6 -2.75 3.81 C-0.93 2.11 -0.93 2.11 0 0 Z " fill="#6F7071" transform="translate(737,260)"/>
<path d="M0 0 C5.78 4.31 5.78 4.31 6.88 7.81 C6.94 8.9 6.94 8.9 7 10 C6.01 10.33 5.02 10.66 4 11 C1.78 8.78 1.6 7.98 1 5 C0.81 4.09 0.63 3.18 0.44 2.25 C0.29 1.51 0.15 0.76 0 0 Z " fill="#404042" transform="translate(1192,585)"/>
<path d="M0 0 C2.64 0 5.28 0 8 0 C7.67 1.65 7.34 3.3 7 5 C4.61 4.42 2.33 3.78 0 3 C0 2.01 0 1.02 0 0 Z " fill="#020305" transform="translate(1191,584)"/>
</svg>
